#!OML:ASF I:\Random Stuff\random\construction\7_22_03\Session 2\subj1.ASF
:FULLY-SPECIFIED
:DEGREES
256
root -1.55103 17.7566 0.729466 -12.3841 86.4408 -20.6516
lowerback 0.710805 -1.30787 0.761464
upperback -1.48536 -1.63338 3.33985
thorax -1.8468 -0.783295 3.04142
lowerneck -16.6386 -10.1735 -7.68642
upperneck 39.1563 -14.0012 5.46298
head 18.6004 -5.55815 1.11202
rclavicle 4.07509e-015 -5.56597e-015
rhumerus -36.0267 -26.6217 -64.3148
rradius 47.3304
rwrist -53.9047
rhand -10.1224 1.70547
rfingers 7.12502
rthumb 15.8657 -27.6645
lclavicle 4.07509e-015 -5.56597e-015
lhumerus -35.4189 0.0361643 90.2623
lradius 39.4494
lwrist 29.6661
lhand -16.8793 55.5993
lfingers 7.12502
lthumb 9.35184 85.3719
rfemur -6.62094 19.0968 19.4872
rtibia 10.6758
rfoot -5.51219 -26.0384
rtoes -14.5693
lfemur -10.3173 -20.1512 -12.9219
ltibia 17.5388
lfoot -13.6417 19.5721
ltoes -33.0467
257
root -1.55945 17.7577 0.723108 -12.1168 86.2697 -20.37
lowerback 0.711017 -1.30528 0.759818
upperback -1.50484 -1.63024 3.31437
thorax -1.86775 -0.781901 3.01634
lowerneck -16.6091 -10.1425 -7.75169
upperneck 39.1771 -13.9549 5.51393
head 18.6147 -5.54304 1.15841
rclavicle -1.43125e-014 1.66979e-014
rhumerus -35.939 -26.9238 -64.2971
rradius 47.3175
rwrist -54.6756
rhand -7.93263 2.18531
rfingers 7.12502
rthumb 17.9737 -27.0042
lclavicle -1.43125e-014 1.66979e-014
lhumerus -35.5859 0.115205 90.1705
lradius 39.1559
lwrist 29.5919
lhand -16.8666 55.5763
lfingers 7.12502
lthumb 9.36404 85.3483
rfemur -6.65548 19.0934 19.4851
rtibia 10.6378
rfoot -5.47773 -25.8598
rtoes -14.5328
lfemur -10.2839 -20.2246 -12.9117
ltibia 17.5432
lfoot -13.7094 19.784
ltoes -32.8778
258
root -1.5684 17.7591 0.71576 -11.5407 86.123 -19.7893
lowerback 0.71106 -1.29211 0.760254
upperback -1.53272 -1.61335 3.26798
thorax -1.89849 -0.773871 2.96834
lowerneck -16.704 -10.1032 -7.651
upperneck 39.2527 -13.879 5.38576
head 18.6482 -5.51153 1.09541
rclavicle -5.36719e-015 -1.03368e-014
rhumerus -35.8652 -27.4459 -64.2297
rradius 47.1899
rwrist -55.1283
rhand -5.78933 2.93457
rfingers 7.12502
rthumb 20.0349 -26.0525
lclavicle -5.36719e-015 -1.03368e-014
lhumerus -35.7811 0.0486799 90.1051
lradius 38.9336
lwrist 29.6872
lhand -16.9567 55.5226
lfingers 7.12502
lthumb 9.27712 85.2985
rfemur -6.71603 18.8867 19.4522
rtibia 10.6219
rfoot -5.43519 -25.5137
rtoes -14.6757
lfemur -10.2614 -20.279 -12.9295
ltibia 17.5196
lfoot -13.7714 19.9613
ltoes -32.5969
259
root -1.57721 17.7609 0.708875 -10.3491 85.97 -18.6315
lowerback 0.638457 -1.28119 0.698432
upperback -1.53679 -1.60322 3.23238
thorax -1.86155 -0.768766 2.96423
lowerneck -17.0575 -10.0417 -7.44086
upperneck 39.4435 -13.7388 5.09435
head 18.7795 -5.44984 0.940413
rclavicle -6.55989e-015 1.51076e-014
rhumerus -35.7308 -27.9276 -64.2055
rradius 47.0638
rwrist -55.1609
rhand -4.15543 3.89358
rfingers 7.12502
rthumb 21.6047 -24.9212
lclavicle -6.55989e-015 1.51076e-014
lhumerus -35.8397 0.138678 89.9979
lradius 38.5893
lwrist 29.65
lhand -17.0239 55.5021
lfingers 7.12502
lthumb 9.21226 85.2809
rfemur -6.83491 18.6317 19.3617
rtibia 10.613
rfoot -5.36154 -25.11
rtoes -15.129
lfemur -10.2742 -20.4342 -12.9777
ltibia 17.4878
lfoot -13.8303 20.2302
ltoes -32.1946
260
root -1.58564 17.7625 0.703649 -9.4488 85.8423 -17.737
lowerback 0.546062 -1.27435 0.613836
upperback -1.49573 -1.60009 3.22402
thorax -1.76544 -0.767153 2.99986
lowerneck -17.0838 -9.97989 -7.46226
upperneck 39.293 -13.6515 5.14196
head 18.6953 -5.42109 0.982598
rclavicle -2.28602e-015 -1.90833e-014
rhumerus -35.5677 -28.3189 -64.1936
rradius 47.008
rwrist -54.9712
rhand -3.33277 4.76464
rfingers 7.12502
rthumb 22.3946 -23.9572
lclavicle -2.28602e-015 -1.90833e-014
lhumerus -35.7951 0.312944 89.899
lradius 38.2134
lwrist 29.5108
lhand -17.0501 55.6316
lfingers 7.12502
lthumb 9.18703 85.4114
rfemur -6.93099 18.4721 19.2957
rtibia 10.6395
rfoot -5.30811 -24.8339
rtoes -15.6155
lfemur -10.2438 -20.6998 -13.0179
ltibia 17.436
lfoot -13.9673 20.512
ltoes -31.7009
261
root -1.5936 17.7628 0.698689 -8.96756 85.7445 -17.2151
lowerback 0.537509 -1.24633 0.573289
upperback -1.47382 -1.56531 3.20164
thorax -1.73924 -0.749956 2.99827
lowerneck -17.1887 -9.97502 -7.47043
upperneck 39.3419 -13.6406 5.13951
head 18.7526 -5.41347 0.980164
rclavicle -1.22253e-014 1.43125e-014
rhumerus -35.5471 -28.7357 -64.1178
rradius 47.0795
rwrist -54.8633
rhand -3.09258 5.30903
rfingers 7.12502
rthumb 22.6251 -23.3849
lclavicle -1.22253e-014 1.43125e-014
lhumerus -35.835 0.367884 89.8474
lradius 37.8911
lwrist 29.4941
lhand -17.0817 55.7792
lfingers 7.12502
lthumb 9.15652 85.5604
rfemur -6.97612 18.292 19.2653
rtibia 10.6961
rfoot -5.32054 -24.5743
rtoes -15.8124
lfemur -10.1638 -20.8206 -13.0593
ltibia 17.3706
lfoot -14.028 20.6583
ltoes -31.3156
262
root -1.60137 17.763 0.692858 -8.30481 85.6654 -16.5073
lowerback 0.580138 -1.21932 0.534269
upperback -1.48705 -1.52979 3.16629
thorax -1.77836 -0.731961 2.98436
lowerneck -17.1345 -9.97438 -7.5076
upperneck 39.272 -13.6533 5.20309
head 18.7098 -5.42016 1.01495
rclavicle 9.93923e-016 -2.22639e-014
rhumerus -35.6209 -29.1245 -64.0129
rradius 47.2888
rwrist -54.7706
rhand -3.03722 5.62067
rfingers 7.12502
rthumb 22.6782 -23.0668
lclavicle 9.93923e-016 -2.22639e-014
lhumerus -35.8891 0.465297 89.7945
lradius 37.5034
lwrist 29.4938
lhand -17.0886 55.8516
lfingers 7.12502
lthumb 9.14986 85.6331
rfemur -7.01076 18.0642 19.2146
rtibia 10.7511
rfoot -5.35286 -24.2659
rtoes -16.042
lfemur -10.0856 -20.8595 -13.1321
ltibia 17.312
lfoot -13.9884 20.7642
ltoes -30.8981
263
root -1.60868 17.7633 0.686247 -7.4485 85.6045 -15.5966
lowerback 0.63176 -1.18504 0.502026
upperback -1.49971 -1.48458 3.12241
thorax -1.8228 -0.709285 2.95781
lowerneck -17.1352 -9.98604 -7.51058
upperneck 39.1856 -13.6612 5.18219
head 18.6562 -5.43206 1.00244
rclavicle -1.74931e-014 4.69132e-014
rhumerus -35.7097 -29.507 -63.8747
rradius 47.5597
rwrist -54.3406
rhand -3.07637 5.9592
rfingers 7.12502
rthumb 22.6407 -22.7329
lclavicle -1.74931e-014 4.69132e-014
lhumerus -35.8653 0.526176 89.769
lradius 37.0597
lwrist 29.461
lhand -17.1873 55.8229
lfingers 7.12502
lthumb 9.05458 85.6086
rfemur -7.03282 17.8637 19.1459
rtibia 10.8116
rfoot -5.36413 -24.0004
rtoes -16.4201
lfemur -9.99369 -20.9639 -13.236
ltibia 17.2508
lfoot -13.9745 20.9201
ltoes -30.6469
264
root -1.61496 17.7631 0.680725 -7.07378 85.5594 -15.1607
lowerback 0.677415 -1.15772 0.498689
upperback -1.50169 -1.44807 3.09369
thorax -1.85283 -0.69125 2.93041
lowerneck -17.2911 -9.99378 -7.50481
upperneck 39.1604 -13.6578 5.14203
head 18.6761 -5.43389 0.974651
rclavicle -1.09332e-015 3.57812e-014
rhumerus -35.7701 -29.8422 -63.7481
rradius 47.8286
rwrist -53.696
rhand -3.03331 6.3806
rfingers 7.12502
rthumb 22.682 -22.3064
lclavicle -1.09332e-015 3.57812e-014
lhumerus -35.9104 0.489853 89.7591
lradius 36.7828
lwrist 29.4597
lhand -17.3738 55.8324
lfingers 7.12502
lthumb 8.8746 85.6257
rfemur -7.04579 17.6876 19.1148
rtibia 10.8894
rfoot -5.4035 -23.7846
rtoes -16.4613
lfemur -9.89332 -21.109 -13.3027
ltibia 17.1777
lfoot -13.9376 21.1199
ltoes -30.6807
265
root -1.6204 17.7635 0.677982 -7.06623 85.5453 -15.1244
lowerback 0.700177 -1.17638 0.457937
upperback -1.52974 -1.47226 3.09781
thorax -1.8922 -0.70233 2.95917
lowerneck -17.3149 -9.92924 -7.52833
upperneck 39.0302 -13.5843 5.23239
head 18.6114 -5.40248 1.03465
rclavicle 3.19049e-014 -2.94201e-014
rhumerus -35.8216 -29.8581 -63.7197
rradius 48.1785
rwrist -53.3716
rhand -2.82696 6.81919
rfingers 7.12502
rthumb 22.88 -21.8435
lclavicle 3.19049e-014 -2.94201e-014
lhumerus -36.0574 0.542728 89.6874
lradius 36.589
lwrist 29.3857
lhand -17.3066 55.6198
lfingers 7.12502
lthumb 8.93951 85.4105
rfemur -7.07332 17.5104 19.1135
rtibia 10.9523
rfoot -5.43301 -23.6019
rtoes -16.4155
lfemur -9.8449 -21.2687 -13.3144
ltibia 17.1142
lfoot -13.8315 21.3179
ltoes -30.6851
266
root -1.62512 17.7642 0.675585 -6.65865 85.5456 -14.7072
lowerback 0.71346 -1.20474 0.370546
upperback -1.58223 -1.50986 3.10017
thorax -1.94953 -0.719166 3.01289
lowerneck -17.1691 -9.82965 -7.55447
upperneck 38.7959 -13.4771 5.37778
head 18.4439 -5.35955 1.13565
rclavicle 4.35338e-014 -4.05521e-014
rhumerus -35.8669 -29.6493 -63.7591
rradius 48.579
rwrist -53.1801
rhand -2.73902 7.31214
rfingers 7.12502
rthumb 22.9644 -21.34
lclavicle 4.35338e-014 -4.05521e-014
lhumerus -36.1873 0.61201 89.6171
lradius 36.3429
lwrist 29.3244
lhand -17.0486 55.2609
lfingers 7.12502
lthumb 9.18848 85.0407
rfemur -7.09938 17.3727 19.075
rtibia 10.9814
rfoot -5.43525 -23.4814
rtoes -16.543
lfemur -9.83158 -21.3921 -13.3538
ltibia 17.0688
lfoot -13.7161 21.4415
ltoes -30.731
267
root -1.62961 17.7651 0.67222 -6.30417 85.5575 -14.3392
lowerback 0.69791 -1.21522 0.306802
upperback -1.60647 -1.52467 3.10155
thorax -1.96329 -0.725383 3.05057
lowerneck -17.2022 -9.76881 -7.5207
upperneck 38.6932 -13.3814 5.35263
head 18.375 -5.32566 1.13708
rclavicle 4.27387e-015 -7.15625e-015
rhumerus -35.807 -29.4216 -63.834
rradius 48.9158
rwrist -52.6185
rhand -2.89151 7.59332
rfingers 7.12502
rthumb 22.8181 -21.077
lclavicle 4.27387e-015 -7.15625e-015
lhumerus -36.249 0.592741 89.6269
lradius 36.1866
lwrist 29.3862
lhand -16.9875 55.3673
lfingers 7.12502
lthumb 9.2474 85.1445
rfemur -7.11315 17.2462 19.0294
rtibia 10.9958
rfoot -5.49027 -23.3538
rtoes -16.4967
lfemur -9.81736 -21.4604 -13.3979
ltibia 17.0289
lfoot -13.65 21.5095
ltoes -30.9421
268
root -1.6343 17.766 0.669593 -6.56683 85.5919 -14.5856
lowerback 0.665899 -1.21826 0.283748
upperback -1.61762 -1.5292 3.10776
thorax -1.95576 -0.727148 3.06944
lowerneck -17.4088 -9.72275 -7.43253
upperneck 38.7312 -13.2902 5.2341
head 18.4176 -5.28733 1.07853
rclavicle 4.07509e-015 3.18055e-015
rhumerus -35.7131 -29.1759 -63.9031
rradius 49.233
rwrist -51.7328
rhand -3.02854 7.50387
rfingers 7.12502
rthumb 22.6866 -21.1826
lclavicle 4.07509e-015 3.18055e-015
lhumerus -36.2929 0.558556 89.6452
lradius 36.0623
lwrist 29.3915
lhand -17.041 55.5342
lfingers 7.12502
lthumb 9.19581 85.3137
rfemur -7.10714 17.1403 19.0342
rtibia 10.9842
rfoot -5.50902 -23.2611
rtoes -16.3332
lfemur -9.81003 -21.4314 -13.3912
ltibia 17.0034
lfoot -13.6236 21.5303
ltoes -31.1291
269
root -1.63927 17.7666 0.667719 -7.03749 85.6359 -15.0361
lowerback 0.657488 -1.21603 0.27217
upperback -1.64181 -1.5257 3.10808
thorax -1.97579 -0.72483 3.07646
lowerneck -17.5668 -9.65809 -7.35147
upperneck 38.7011 -13.199 5.19432
head 18.4182 -5.2431 1.05948
rclavicle 1.95803e-014 -2.8625e-014
rhumerus -35.673 -29.0411 -63.8853
rradius 49.5447
rwrist -50.6636
rhand -2.81119 7.29251
rfingers 7.12502
rthumb 22.8952 -21.3683
lclavicle 1.95803e-014 -2.8625e-014
lhumerus -36.3165 0.580472 89.622
lradius 35.8072
lwrist 29.2596
lhand -17.0249 55.3691
lfingers 7.12502
lthumb 9.21128 85.1479
rfemur -7.07707 17.0392 19.0634
rtibia 10.941
rfoot -5.45931 -23.2104
rtoes -16.2384
lfemur -9.81066 -21.3938 -13.3678
ltibia 16.9991
lfoot -13.6953 21.4312
ltoes -31.1181
270
root -1.64477 17.7675 0.665749 -7.55132 85.6978 -15.5444
lowerback 0.652201 -1.22028 0.261352
upperback -1.67924 -1.52996 3.11742
thorax -2.01058 -0.726016 3.09286
lowerneck -17.8433 -9.58674 -7.18311
upperneck 38.694 -13.0803 5.03623
head 18.4367 -5.18898 0.971886
rclavicle 1.63997e-014 -1.35174e-014
rhumerus -35.6658 -28.9941 -63.8027
rradius 49.8741
rwrist -49.5848
rhand -2.25113 7.07777
rfingers 7.12502
rthumb 23.4325 -21.5155
lclavicle 1.63997e-014 -1.35174e-014
lhumerus -36.3314 0.606927 89.6069
lradius 35.5548
lwrist 29.1049
lhand -16.9842 55.4311
lfingers 7.12502
lthumb 9.25055 85.2082
rfemur -7.0611 16.9356 19.084
rtibia 10.8945
rfoot -5.44955 -23.1536
rtoes -16.123
lfemur -9.84206 -21.4729 -13.3327
ltibia 17.0034
lfoot -13.7859 21.3365
ltoes -30.8666
